<?xml version="1.0" encoding="UTF-8" standalone="no"?><svg xmlns="http://www.w3.org/2000/svg" xmlns:xlink="http://www.w3.org/1999/xlink" contentScriptType="application/ecmascript" contentStyleType="text/css" height="344px" preserveAspectRatio="none" style="width:391px;height:344px;" version="1.1" viewBox="0 0 391 344" width="391px" zoomAndPan="magnify"><defs><filter height="300%" id="f1w60m6cixvjas" width="300%" x="-1" y="-1"><feGaussianBlur result="blurOut" stdDeviation="2.0"/><feColorMatrix in="blurOut" result="blurOut2" type="matrix" values="0 0 0 0 0 0 0 0 0 0 0 0 0 0 0 0 0 0 .4 0"/><feOffset dx="4.0" dy="4.0" in="blurOut2" result="blurOut3"/><feBlend in="SourceGraphic" in2="blurOut3" mode="normal"/></filter></defs><g><!--cluster de.gematik.ti.cardreader.provider.pcsc.entities--><polygon fill="#FFFFFF" filter="url(#f1w60m6cixvjas)" points="22,80,359,80,366,103.6094,369,103.6094,369,332,22,332,22,80" style="stroke: #000000; stroke-width: 1.5;"/><line style="stroke: #000000; stroke-width: 1.5;" x1="22" x2="366" y1="103.6094" y2="103.6094"/><text fill="#000000" font-family="sans-serif" font-size="14" font-weight="bold" lengthAdjust="spacingAndGlyphs" textLength="331" x="26" y="96.5332">de.gematik.ti.cardreader.provider.pcsc.entities</text><!--class CardReader--><rect fill="#FEFECE" filter="url(#f1w60m6cixvjas)" height="200.1953" id="CardReader" style="stroke: #A80036; stroke-width: 1.5;" width="160" x="115" y="116"/><ellipse cx="157" cy="132" fill="#ADD1B2" rx="11" ry="11" style="stroke: #A80036; stroke-width: 1.0;"/><path d="M159,128.5 Q159.2031,128 159.4375,127.75 Q159.6719,127.5 159.9375,127.5 Q160.4063,127.5 160.7031,127.7813 Q161,128.0625 161,128.7188 L161,130.2813 Q161,130.9375 160.7188,131.2188 Q160.4375,131.5 160,131.5 Q159.6094,131.5 159.3594,131.3281 Q159.1094,131.1563 159,130.7031 Q158.9531,130.3906 158.7813,130.2188 Q158.4688,129.8906 157.9063,129.7031 Q157.3438,129.5 156.7813,129.5 Q156.0781,129.5 155.4844,129.7813 Q154.9063,130.0625 154.4531,130.6875 Q154,131.3125 154,132.1719 L154,133.0938 Q154,134.125 154.8438,134.8125 Q155.6875,135.5 157.1875,135.5 Q158.0781,135.5 158.7031,135.2969 Q159.0625,135.1875 159.4688,134.8281 Q159.7344,134.625 159.875,134.5625 Q160.0156,134.5 160.1875,134.5 Q160.5156,134.5 160.75,134.7656 Q161,135.0156 161,135.375 Q161,135.7188 160.6563,136.125 Q160.1563,136.7188 159.3594,137.0469 Q158.3125,137.5 157.0313,137.5 Q155.5313,137.5 154.3281,136.9063 Q153.3594,136.4375 152.6719,135.4219 Q152,134.4063 152,133.2031 L152,132.1094 Q152,130.8594 152.5938,129.7656 Q153.2031,128.6719 154.25,128.0938 Q155.3125,127.5 156.5,127.5 Q157.2188,127.5 157.8438,127.75 Q158.4688,128 159,128.5 Z "/><text fill="#000000" font-family="sans-serif" font-size="12" lengthAdjust="spacingAndGlyphs" textLength="68" x="177" y="136.9102">CardReader</text><line style="stroke: #A80036; stroke-width: 1.5;" x1="116" x2="274" y1="148" y2="148"/><rect fill="none" height="6" style="stroke: #C82930; stroke-width: 1.0;" width="6" x="123" y="157.418"/><text fill="#000000" font-family="sans-serif" font-size="11" lengthAdjust="spacingAndGlyphs" textLength="134" x="135" y="163.4189">cardTerminal : CardTerminal</text><line style="stroke: #A80036; stroke-width: 1.5;" x1="116" x2="274" y1="169.8359" y2="169.8359"/><ellipse cx="126" cy="182.2539" fill="#84BE84" rx="3" ry="3" style="stroke: #038048; stroke-width: 1.0;"/><text fill="#000000" font-family="sans-serif" font-size="11" lengthAdjust="spacingAndGlyphs" textLength="66" x="135" y="185.2549">CardReader()</text><ellipse cx="126" cy="196.0898" fill="#84BE84" rx="3" ry="3" style="stroke: #038048; stroke-width: 1.0;"/><text fill="#000000" font-family="sans-serif" font-size="11" lengthAdjust="spacingAndGlyphs" textLength="45" x="135" y="199.0908">initialize()</text><ellipse cx="126" cy="209.9258" fill="#84BE84" rx="3" ry="3" style="stroke: #038048; stroke-width: 1.0;"/><text fill="#000000" font-family="sans-serif" font-size="11" lengthAdjust="spacingAndGlyphs" textLength="59" x="135" y="212.9268">isInitialized()</text><ellipse cx="126" cy="223.7617" fill="#84BE84" rx="3" ry="3" style="stroke: #038048; stroke-width: 1.0;"/><text fill="#000000" font-family="sans-serif" font-size="11" lengthAdjust="spacingAndGlyphs" textLength="47" x="135" y="226.7627">connect()</text><ellipse cx="126" cy="237.5977" fill="#84BE84" rx="3" ry="3" style="stroke: #038048; stroke-width: 1.0;"/><text fill="#000000" font-family="sans-serif" font-size="11" lengthAdjust="spacingAndGlyphs" textLength="47" x="135" y="240.5986">connect()</text><ellipse cx="126" cy="251.4336" fill="#84BE84" rx="3" ry="3" style="stroke: #038048; stroke-width: 1.0;"/><text fill="#000000" font-family="sans-serif" font-size="11" lengthAdjust="spacingAndGlyphs" textLength="50" x="135" y="254.4346">getName()</text><ellipse cx="126" cy="265.2695" fill="#84BE84" rx="3" ry="3" style="stroke: #038048; stroke-width: 1.0;"/><text fill="#000000" font-family="sans-serif" font-size="11" lengthAdjust="spacingAndGlyphs" textLength="76" x="135" y="268.2705">isCardPresent()</text><ellipse cx="126" cy="279.1055" fill="#84BE84" rx="3" ry="3" style="stroke: #038048; stroke-width: 1.0;"/><text fill="#000000" font-family="sans-serif" font-size="11" lengthAdjust="spacingAndGlyphs" textLength="103" x="135" y="282.1064">waitForCardAbsent()</text><ellipse cx="126" cy="292.9414" fill="#84BE84" rx="3" ry="3" style="stroke: #038048; stroke-width: 1.0;"/><text fill="#000000" font-family="sans-serif" font-size="11" lengthAdjust="spacingAndGlyphs" textLength="105" x="135" y="295.9424">waitForCardPresent()</text><ellipse cx="126" cy="306.7773" fill="#84BE84" rx="3" ry="3" style="stroke: #038048; stroke-width: 1.0;"/><text fill="#000000" font-family="sans-serif" font-size="11" lengthAdjust="spacingAndGlyphs" textLength="45" x="135" y="309.7783">toString()</text><!--class ICardReader--><rect fill="#FEFECE" filter="url(#f1w60m6cixvjas)" height="48" id="ICardReader" style="stroke: #A80036; stroke-width: 1.5;" width="103" x="143.5" y="8"/><ellipse cx="158.5" cy="24" fill="#ADD1B2" rx="11" ry="11" style="stroke: #A80036; stroke-width: 1.0;"/><path d="M160.5,20.5 Q160.7031,20 160.9375,19.75 Q161.1719,19.5 161.4375,19.5 Q161.9063,19.5 162.2031,19.7813 Q162.5,20.0625 162.5,20.7188 L162.5,22.2813 Q162.5,22.9375 162.2188,23.2188 Q161.9375,23.5 161.5,23.5 Q161.1094,23.5 160.8594,23.3281 Q160.6094,23.1563 160.5,22.7031 Q160.4531,22.3906 160.2813,22.2188 Q159.9688,21.8906 159.4063,21.7031 Q158.8438,21.5 158.2813,21.5 Q157.5781,21.5 156.9844,21.7813 Q156.4063,22.0625 155.9531,22.6875 Q155.5,23.3125 155.5,24.1719 L155.5,25.0938 Q155.5,26.125 156.3438,26.8125 Q157.1875,27.5 158.6875,27.5 Q159.5781,27.5 160.2031,27.2969 Q160.5625,27.1875 160.9688,26.8281 Q161.2344,26.625 161.375,26.5625 Q161.5156,26.5 161.6875,26.5 Q162.0156,26.5 162.25,26.7656 Q162.5,27.0156 162.5,27.375 Q162.5,27.7188 162.1563,28.125 Q161.6563,28.7188 160.8594,29.0469 Q159.8125,29.5 158.5313,29.5 Q157.0313,29.5 155.8281,28.9063 Q154.8594,28.4375 154.1719,27.4219 Q153.5,26.4063 153.5,25.2031 L153.5,24.1094 Q153.5,22.8594 154.0938,21.7656 Q154.7031,20.6719 155.75,20.0938 Q156.8125,19.5 158,19.5 Q158.7188,19.5 159.3438,19.75 Q159.9688,20 160.5,20.5 Z "/><text fill="#000000" font-family="sans-serif" font-size="12" lengthAdjust="spacingAndGlyphs" textLength="71" x="172.5" y="28.9102">ICardReader</text><line style="stroke: #A80036; stroke-width: 1.5;" x1="144.5" x2="245.5" y1="40" y2="40"/><line style="stroke: #A80036; stroke-width: 1.5;" x1="144.5" x2="245.5" y1="48" y2="48"/><!--link ICardReader to CardReader--><path d="M195,76.365 C195,88.41 195,102.006 195,115.855 " fill="none" id="ICardReader-CardReader" style="stroke: #A80036; stroke-width: 1.0;"/><polygon fill="none" points="188,76.05,195,56.05,202,76.05,188,76.05" style="stroke: #A80036; stroke-width: 1.0;"/><!--
@startuml

  package de.gematik.ti.cardreader.provider.pcsc.entities {
    class CardReader {
        - cardTerminal : CardTerminal
        + CardReader()
        + initialize()
        + isInitialized()
        + connect()
        + connect()
        + getName()
        + isCardPresent()
        + waitForCardAbsent()
        + waitForCardPresent()
        + toString()
    }
  }


  CardReader -up-|> ICardReader


@enduml

PlantUML version 1.2019.06(Fri May 24 19:10:25 CEST 2019)
(APACHE source distribution)
Java Runtime: OpenJDK Runtime Environment
JVM: OpenJDK 64-Bit Server VM
Java Version: 11.0.4+10-b304.69
Operating System: Windows 7
OS Version: 6.1
Default Encoding: Cp1252
Language: de
Country: DE
--></g></svg>