<?xml version="1.0" encoding="UTF-8" standalone="no"?><svg xmlns="http://www.w3.org/2000/svg" xmlns:xlink="http://www.w3.org/1999/xlink" contentScriptType="application/ecmascript" contentStyleType="text/css" height="247px" preserveAspectRatio="none" style="width:388px;height:247px;" version="1.1" viewBox="0 0 388 247" width="388px" zoomAndPan="magnify"><defs><filter height="300%" id="fts36j1iqijs1" width="300%" x="-1" y="-1"><feGaussianBlur result="blurOut" stdDeviation="2.0"/><feColorMatrix in="blurOut" result="blurOut2" type="matrix" values="0 0 0 0 0 0 0 0 0 0 0 0 0 0 0 0 0 0 .4 0"/><feOffset dx="4.0" dy="4.0" in="blurOut2" result="blurOut3"/><feBlend in="SourceGraphic" in2="blurOut3" mode="normal"/></filter></defs><g><!--cluster de.gematik.ti.cardreader.provider.pcsc.control--><polygon fill="#FFFFFF" filter="url(#fts36j1iqijs1)" points="22,80,356,80,363,103.6094,366,103.6094,366,235,22,235,22,80" style="stroke: #000000; stroke-width: 1.5;"/><line style="stroke: #000000; stroke-width: 1.5;" x1="22" x2="363" y1="103.6094" y2="103.6094"/><text fill="#000000" font-family="sans-serif" font-size="14" font-weight="bold" lengthAdjust="spacingAndGlyphs" textLength="328" x="26" y="96.5332">de.gematik.ti.cardreader.provider.pcsc.control</text><!--class CardReaderProvider--><rect fill="#FEFECE" filter="url(#fts36j1iqijs1)" height="103.3438" id="CardReaderProvider" style="stroke: #A80036; stroke-width: 1.5;" width="215" x="86.5" y="116"/><ellipse cx="133.25" cy="132" fill="#ADD1B2" rx="11" ry="11" style="stroke: #A80036; stroke-width: 1.0;"/><path d="M135.25,128.5 Q135.4531,128 135.6875,127.75 Q135.9219,127.5 136.1875,127.5 Q136.6563,127.5 136.9531,127.7813 Q137.25,128.0625 137.25,128.7188 L137.25,130.2813 Q137.25,130.9375 136.9688,131.2188 Q136.6875,131.5 136.25,131.5 Q135.8594,131.5 135.6094,131.3281 Q135.3594,131.1563 135.25,130.7031 Q135.2031,130.3906 135.0313,130.2188 Q134.7188,129.8906 134.1563,129.7031 Q133.5938,129.5 133.0313,129.5 Q132.3281,129.5 131.7344,129.7813 Q131.1563,130.0625 130.7031,130.6875 Q130.25,131.3125 130.25,132.1719 L130.25,133.0938 Q130.25,134.125 131.0938,134.8125 Q131.9375,135.5 133.4375,135.5 Q134.3281,135.5 134.9531,135.2969 Q135.3125,135.1875 135.7188,134.8281 Q135.9844,134.625 136.125,134.5625 Q136.2656,134.5 136.4375,134.5 Q136.7656,134.5 137,134.7656 Q137.25,135.0156 137.25,135.375 Q137.25,135.7188 136.9063,136.125 Q136.4063,136.7188 135.6094,137.0469 Q134.5625,137.5 133.2813,137.5 Q131.7813,137.5 130.5781,136.9063 Q129.6094,136.4375 128.9219,135.4219 Q128.25,134.4063 128.25,133.2031 L128.25,132.1094 Q128.25,130.8594 128.8438,129.7656 Q129.4531,128.6719 130.5,128.0938 Q131.5625,127.5 132.75,127.5 Q133.4688,127.5 134.0938,127.75 Q134.7188,128 135.25,128.5 Z "/><text fill="#000000" font-family="sans-serif" font-size="12" lengthAdjust="spacingAndGlyphs" textLength="113" x="153.75" y="136.9102">CardReaderProvider</text><line style="stroke: #A80036; stroke-width: 1.5;" x1="87.5" x2="300.5" y1="148" y2="148"/><rect fill="none" height="6" style="stroke: #C82930; stroke-width: 1.0;" width="6" x="94.5" y="157.418"/><text fill="#000000" font-family="sans-serif" font-size="11" lengthAdjust="spacingAndGlyphs" textLength="189" x="106.5" y="163.4189">providerDescriptor : ProviderDescriptor</text><line style="stroke: #A80036; stroke-width: 1.5;" x1="87.5" x2="300.5" y1="169.8359" y2="169.8359"/><ellipse cx="97.5" cy="182.2539" fill="#84BE84" rx="3" ry="3" style="stroke: #038048; stroke-width: 1.0;"/><text fill="#000000" font-family="sans-serif" font-size="11" lengthAdjust="spacingAndGlyphs" textLength="106" x="106.5" y="185.2549">CardReaderProvider()</text><ellipse cx="97.5" cy="196.0898" fill="#84BE84" rx="3" ry="3" style="stroke: #038048; stroke-width: 1.0;"/><text fill="#000000" font-family="sans-serif" font-size="11" lengthAdjust="spacingAndGlyphs" textLength="127" x="106.5" y="199.0908">getCardReaderController()</text><ellipse cx="97.5" cy="209.9258" fill="#84BE84" rx="3" ry="3" style="stroke: #038048; stroke-width: 1.0;"/><text fill="#000000" font-family="sans-serif" font-size="11" lengthAdjust="spacingAndGlyphs" textLength="73" x="106.5" y="212.9268">getDescriptor()</text><!--class ICardReaderControllerProvider--><rect fill="#FEFECE" filter="url(#fts36j1iqijs1)" height="48" id="ICardReaderControllerProvider" style="stroke: #A80036; stroke-width: 1.5;" width="202" x="93" y="8"/><ellipse cx="108" cy="24" fill="#ADD1B2" rx="11" ry="11" style="stroke: #A80036; stroke-width: 1.0;"/><path d="M110,20.5 Q110.2031,20 110.4375,19.75 Q110.6719,19.5 110.9375,19.5 Q111.4063,19.5 111.7031,19.7813 Q112,20.0625 112,20.7188 L112,22.2813 Q112,22.9375 111.7188,23.2188 Q111.4375,23.5 111,23.5 Q110.6094,23.5 110.3594,23.3281 Q110.1094,23.1563 110,22.7031 Q109.9531,22.3906 109.7813,22.2188 Q109.4688,21.8906 108.9063,21.7031 Q108.3438,21.5 107.7813,21.5 Q107.0781,21.5 106.4844,21.7813 Q105.9063,22.0625 105.4531,22.6875 Q105,23.3125 105,24.1719 L105,25.0938 Q105,26.125 105.8438,26.8125 Q106.6875,27.5 108.1875,27.5 Q109.0781,27.5 109.7031,27.2969 Q110.0625,27.1875 110.4688,26.8281 Q110.7344,26.625 110.875,26.5625 Q111.0156,26.5 111.1875,26.5 Q111.5156,26.5 111.75,26.7656 Q112,27.0156 112,27.375 Q112,27.7188 111.6563,28.125 Q111.1563,28.7188 110.3594,29.0469 Q109.3125,29.5 108.0313,29.5 Q106.5313,29.5 105.3281,28.9063 Q104.3594,28.4375 103.6719,27.4219 Q103,26.4063 103,25.2031 L103,24.1094 Q103,22.8594 103.5938,21.7656 Q104.2031,20.6719 105.25,20.0938 Q106.3125,19.5 107.5,19.5 Q108.2188,19.5 108.8438,19.75 Q109.4688,20 110,20.5 Z "/><text fill="#000000" font-family="sans-serif" font-size="12" lengthAdjust="spacingAndGlyphs" textLength="170" x="122" y="28.9102">ICardReaderControllerProvider</text><line style="stroke: #A80036; stroke-width: 1.5;" x1="94" x2="294" y1="40" y2="40"/><line style="stroke: #A80036; stroke-width: 1.5;" x1="94" x2="294" y1="48" y2="48"/><!--link ICardReaderControllerProvider to CardReaderProvider--><path d="M194,76.463 C194,89.043 194,102.885 194,115.863 " fill="none" id="ICardReaderControllerProvider-CardReaderProvider" style="stroke: #A80036; stroke-width: 1.0;"/><polygon fill="none" points="187,76.254,194,56.254,201,76.254,187,76.254" style="stroke: #A80036; stroke-width: 1.0;"/><!--
@startuml

  package de.gematik.ti.cardreader.provider.pcsc.control {
    class CardReaderProvider {
        - providerDescriptor : ProviderDescriptor
        + CardReaderProvider()
        + getCardReaderController()
        + getDescriptor()
    }
  }

  CardReaderProvider -up-|> ICardReaderControllerProvider

@enduml

PlantUML version 1.2019.06(Fri May 24 19:10:25 CEST 2019)
(APACHE source distribution)
Java Runtime: OpenJDK Runtime Environment
JVM: OpenJDK 64-Bit Server VM
Java Version: 11.0.4+10-b304.69
Operating System: Windows 7
OS Version: 6.1
Default Encoding: Cp1252
Language: de
Country: DE
--></g></svg>