<?xml version="1.0" encoding="UTF-8" standalone="no"?><svg xmlns="http://www.w3.org/2000/svg" xmlns:xlink="http://www.w3.org/1999/xlink" contentScriptType="application/ecmascript" contentStyleType="text/css" height="410px" preserveAspectRatio="none" style="width:388px;height:410px;" version="1.1" viewBox="0 0 388 410" width="388px" zoomAndPan="magnify"><defs><filter height="300%" id="fglxel3qkssmh" width="300%" x="-1" y="-1"><feGaussianBlur result="blurOut" stdDeviation="2.0"/><feColorMatrix in="blurOut" result="blurOut2" type="matrix" values="0 0 0 0 0 0 0 0 0 0 0 0 0 0 0 0 0 0 .4 0"/><feOffset dx="4.0" dy="4.0" in="blurOut2" result="blurOut3"/><feBlend in="SourceGraphic" in2="blurOut3" mode="normal"/></filter></defs><g><!--cluster de.gematik.ti.cardreader.provider.pcsc.control--><polygon fill="#FFFFFF" filter="url(#fglxel3qkssmh)" points="22,24,356,24,363,47.6094,366,47.6094,366,398,22,398,22,24" style="stroke: #000000; stroke-width: 1.5;"/><line style="stroke: #000000; stroke-width: 1.5;" x1="22" x2="363" y1="47.6094" y2="47.6094"/><text fill="#000000" font-family="sans-serif" font-size="14" font-weight="bold" lengthAdjust="spacingAndGlyphs" textLength="328" x="26" y="40.5332">de.gematik.ti.cardreader.provider.pcsc.control</text><!--class PcScCardReaderController--><rect fill="#FEFECE" filter="url(#fglxel3qkssmh)" height="158.6875" id="PcScCardReaderController" style="stroke: #A80036; stroke-width: 1.5;" width="205" x="91.5" y="60"/><ellipse cx="116.85" cy="76" fill="#ADD1B2" rx="11" ry="11" style="stroke: #A80036; stroke-width: 1.0;"/><path d="M118.85,72.5 Q119.0531,72 119.2875,71.75 Q119.5219,71.5 119.7875,71.5 Q120.2563,71.5 120.5531,71.7813 Q120.85,72.0625 120.85,72.7188 L120.85,74.2813 Q120.85,74.9375 120.5688,75.2188 Q120.2875,75.5 119.85,75.5 Q119.4594,75.5 119.2094,75.3281 Q118.9594,75.1563 118.85,74.7031 Q118.8031,74.3906 118.6313,74.2188 Q118.3188,73.8906 117.7563,73.7031 Q117.1938,73.5 116.6313,73.5 Q115.9281,73.5 115.3344,73.7813 Q114.7563,74.0625 114.3031,74.6875 Q113.85,75.3125 113.85,76.1719 L113.85,77.0938 Q113.85,78.125 114.6938,78.8125 Q115.5375,79.5 117.0375,79.5 Q117.9281,79.5 118.5531,79.2969 Q118.9125,79.1875 119.3188,78.8281 Q119.5844,78.625 119.725,78.5625 Q119.8656,78.5 120.0375,78.5 Q120.3656,78.5 120.6,78.7656 Q120.85,79.0156 120.85,79.375 Q120.85,79.7188 120.5063,80.125 Q120.0063,80.7188 119.2094,81.0469 Q118.1625,81.5 116.8813,81.5 Q115.3813,81.5 114.1781,80.9063 Q113.2094,80.4375 112.5219,79.4219 Q111.85,78.4063 111.85,77.2031 L111.85,76.1094 Q111.85,74.8594 112.4438,73.7656 Q113.0531,72.6719 114.1,72.0938 Q115.1625,71.5 116.35,71.5 Q117.0688,71.5 117.6938,71.75 Q118.3188,72 118.85,72.5 Z "/><text fill="#000000" font-family="sans-serif" font-size="12" lengthAdjust="spacingAndGlyphs" textLength="150" x="133.15" y="80.9102">PcScCardReaderController</text><line style="stroke: #A80036; stroke-width: 1.5;" x1="92.5" x2="295.5" y1="92" y2="92"/><rect fill="none" height="6" style="stroke: #C82930; stroke-width: 1.0;" width="6" x="99.5" y="101.418"/><text fill="#000000" font-family="sans-serif" font-size="11" lengthAdjust="spacingAndGlyphs" text-decoration="underline" textLength="86" x="111.5" y="107.4189">LOGGER : Logger</text><rect fill="none" height="6" style="stroke: #C82930; stroke-width: 1.0;" width="6" x="99.5" y="115.2539"/><text fill="#000000" font-family="sans-serif" font-size="11" lengthAdjust="spacingAndGlyphs" text-decoration="underline" textLength="179" x="111.5" y="121.2549">instance : PcScCardReaderController</text><rect fill="none" height="6" style="stroke: #C82930; stroke-width: 1.0;" width="6" x="99.5" y="129.0898"/><text fill="#000000" font-family="sans-serif" font-size="11" lengthAdjust="spacingAndGlyphs" textLength="168" x="111.5" y="135.0908">Readers : Collection&lt;ICardReader&gt;</text><line style="stroke: #A80036; stroke-width: 1.5;" x1="92.5" x2="295.5" y1="141.5078" y2="141.5078"/><rect fill="#F24D5C" height="6" style="stroke: #C82930; stroke-width: 1.0;" width="6" x="99.5" y="150.9258"/><text fill="#000000" font-family="sans-serif" font-size="11" lengthAdjust="spacingAndGlyphs" textLength="137" x="111.5" y="156.9268">PcScCardReaderController()</text><ellipse cx="102.5" cy="167.7617" fill="#84BE84" rx="3" ry="3" style="stroke: #038048; stroke-width: 1.0;"/><text fill="#000000" font-family="sans-serif" font-size="11" lengthAdjust="spacingAndGlyphs" text-decoration="underline" textLength="64" x="111.5" y="170.7627">getInstance()</text><ellipse cx="102.5" cy="181.5977" fill="#84BE84" rx="3" ry="3" style="stroke: #038048; stroke-width: 1.0;"/><text fill="#000000" font-family="sans-serif" font-size="11" lengthAdjust="spacingAndGlyphs" textLength="87" x="111.5" y="184.5986">getCardReaders()</text><rect fill="#F24D5C" height="6" style="stroke: #C82930; stroke-width: 1.0;" width="6" x="99.5" y="192.4336"/><text fill="#000000" font-family="sans-serif" font-size="11" lengthAdjust="spacingAndGlyphs" textLength="134" x="111.5" y="198.4346">findAvailableCardReaders()</text><rect fill="#F24D5C" height="6" style="stroke: #C82930; stroke-width: 1.0;" width="6" x="99.5" y="206.2695"/><text fill="#000000" font-family="sans-serif" font-size="11" lengthAdjust="spacingAndGlyphs" textLength="85" x="111.5" y="212.2705">listCardReaders()</text><!--class CheckReaders--><rect fill="#FEFECE" filter="url(#fglxel3qkssmh)" height="103.3438" id="CheckReaders" style="stroke: #A80036; stroke-width: 1.5;" width="147" x="120.5" y="279"/><ellipse cx="149.9" cy="295" fill="#ADD1B2" rx="11" ry="11" style="stroke: #A80036; stroke-width: 1.0;"/><path d="M151.9,291.5 Q152.1031,291 152.3375,290.75 Q152.5719,290.5 152.8375,290.5 Q153.3063,290.5 153.6031,290.7813 Q153.9,291.0625 153.9,291.7188 L153.9,293.2813 Q153.9,293.9375 153.6188,294.2188 Q153.3375,294.5 152.9,294.5 Q152.5094,294.5 152.2594,294.3281 Q152.0094,294.1563 151.9,293.7031 Q151.8531,293.3906 151.6813,293.2188 Q151.3688,292.8906 150.8063,292.7031 Q150.2438,292.5 149.6813,292.5 Q148.9781,292.5 148.3844,292.7813 Q147.8063,293.0625 147.3531,293.6875 Q146.9,294.3125 146.9,295.1719 L146.9,296.0938 Q146.9,297.125 147.7438,297.8125 Q148.5875,298.5 150.0875,298.5 Q150.9781,298.5 151.6031,298.2969 Q151.9625,298.1875 152.3688,297.8281 Q152.6344,297.625 152.775,297.5625 Q152.9156,297.5 153.0875,297.5 Q153.4156,297.5 153.65,297.7656 Q153.9,298.0156 153.9,298.375 Q153.9,298.7188 153.5563,299.125 Q153.0563,299.7188 152.2594,300.0469 Q151.2125,300.5 149.9313,300.5 Q148.4313,300.5 147.2281,299.9063 Q146.2594,299.4375 145.5719,298.4219 Q144.9,297.4063 144.9,296.2031 L144.9,295.1094 Q144.9,293.8594 145.4938,292.7656 Q146.1031,291.6719 147.15,291.0938 Q148.2125,290.5 149.4,290.5 Q150.1188,290.5 150.7438,290.75 Q151.3688,291 151.9,291.5 Z "/><text fill="#000000" font-family="sans-serif" font-size="12" lengthAdjust="spacingAndGlyphs" textLength="83" x="167.1" y="299.9102">CheckReaders</text><line style="stroke: #A80036; stroke-width: 1.5;" x1="121.5" x2="266.5" y1="311" y2="311"/><line style="stroke: #A80036; stroke-width: 1.5;" x1="121.5" x2="266.5" y1="319" y2="319"/><polygon fill="#4177AF" points="131.5,327.418,127.5,333.418,135.5,333.418" style="stroke: #1963A0; stroke-width: 1.0;"/><text fill="#000000" font-family="sans-serif" font-size="11" lengthAdjust="spacingAndGlyphs" textLength="79" x="140.5" y="334.4189">CheckReaders()</text><ellipse cx="131.5" cy="345.2539" fill="#84BE84" rx="3" ry="3" style="stroke: #038048; stroke-width: 1.0;"/><text fill="#000000" font-family="sans-serif" font-size="11" lengthAdjust="spacingAndGlyphs" textLength="24" x="140.5" y="348.2549">run()</text><rect fill="#F24D5C" height="6" style="stroke: #C82930; stroke-width: 1.0;" width="6" x="128.5" y="356.0898"/><text fill="#000000" font-family="sans-serif" font-size="11" lengthAdjust="spacingAndGlyphs" textLength="99" x="140.5" y="362.0908">findNewAndInform()</text><rect fill="#F24D5C" height="6" style="stroke: #C82930; stroke-width: 1.0;" width="6" x="128.5" y="369.9258"/><text fill="#000000" font-family="sans-serif" font-size="11" lengthAdjust="spacingAndGlyphs" textLength="121" x="140.5" y="375.9268">findRemovedAndInform()</text><!--link PcScCardReaderController to CheckReaders--><path d="M194,234.276 C194,249.61 194,264.969 194,278.738 " fill="none" id="PcScCardReaderController-CheckReaders" style="stroke: #A80036; stroke-width: 1.0;"/><ellipse cx="194" cy="227.011" fill="#FFFFFF" rx="8" ry="8" style="stroke: #A80036; stroke-width: 1.0;"/><line style="stroke: #A80036; stroke-width: 1.0;" x1="194" x2="194" y1="235.011" y2="219.011"/><line style="stroke: #A80036; stroke-width: 1.0;" x1="186" x2="202" y1="227.011" y2="227.011"/><!--
@startuml

  package de.gematik.ti.cardreader.provider.pcsc.control {
    class PcScCardReaderController {
        {static} - LOGGER : Logger
        {static} - instance : PcScCardReaderController
        - Readers : Collection<ICardReader>
        - PcScCardReaderController()
        {static} + getInstance()
        + getCardReaders()
        - findAvailableCardReaders()
        - listCardReaders()
    }
  }


  package de.gematik.ti.cardreader.provider.pcsc.control {
    class CheckReaders {
        ~ CheckReaders()
        + run()
        - findNewAndInform()
        - findRemovedAndInform()
    }
  }


  PcScCardReaderController +-down- CheckReaders

@enduml

PlantUML version 1.2019.06(Fri May 24 19:10:25 CEST 2019)
(APACHE source distribution)
Java Runtime: OpenJDK Runtime Environment
JVM: OpenJDK 64-Bit Server VM
Java Version: 11.0.4+10-b304.69
Operating System: Windows 7
OS Version: 6.1
Default Encoding: Cp1252
Language: de
Country: DE
--></g></svg>